<svg width="571" height="202" version="1.1" xmlns="http://www.w3.org/2000/svg" ><path fill="rgb(0,0,0)" stroke="rgb(0,0,0)" stroke-width="1" opacity="0" d="M 0 0 L 571 0 L 571 202 L 0 202 L 0 0 Z M 167 41 L 153 45 L 147 49 Q 137 55 136 69 L 126 60 L 113 56 L 98 57 L 82 66 Q 71 74 66 85 L 84 72 L 100 66 Q 119 64 128 72 L 142 89 L 143 77 L 150 65 L 157 59 L 169 55 L 181 56 L 193 63 Q 199 69 202 80 L 202 94 L 198 103 L 198 104 L 209 100 L 222 100 L 236 107 Q 244 113 246 126 Q 246 143 238 152 Q 231 160 218 162 Q 207 164 202 160 Q 196 158 197 162 L 212 168 L 228 168 L 242 162 Q 255 153 259 136 L 259 121 Q 257 110 251 103 L 243 95 L 227 90 L 212 91 L 213 88 Q 214 77 212 71 L 205 57 Q 194 40 167 41 Z M 345 61 L 343 63 L 342 128 Q 343 131 350 129 L 351 128 L 351 118 L 352 117 L 352 74 L 353 73 Q 354 66 352 63 Q 350 59 345 61 Z M 484 61 L 482 63 Q 484 68 481 70 L 481 88 L 477 85 Q 463 83 458 88 Q 451 93 449 103 Q 447 117 453 123 L 463 129 L 476 129 L 481 126 L 484 128 Q 489 129 490 127 Q 492 121 489 120 L 489 88 L 490 87 L 490 74 L 491 73 L 491 64 L 490 63 Q 490 59 484 61 Z M 504 61 L 502 63 L 501 128 L 503 129 L 509 129 L 510 127 L 510 112 L 511 111 L 511 63 Q 510 59 504 61 Z M 328 66 L 327 67 L 315 67 L 303 74 L 291 93 L 288 105 Q 288 117 294 123 L 303 128 L 316 128 Q 325 126 331 120 L 333 117 Q 334 112 331 111 L 326 111 Q 320 118 310 120 L 304 118 Q 299 115 298 110 Q 297 101 300 97 L 308 84 Q 312 77 321 75 L 324 76 L 326 81 L 328 82 L 334 82 L 335 80 L 334 68 Q 333 65 328 66 Z M 376 85 L 369 89 Q 363 94 361 103 Q 360 114 364 121 L 374 128 Q 384 130 390 126 L 397 117 L 399 107 L 398 98 L 394 90 Q 389 83 376 85 Z M 408 85 L 406 94 L 406 110 L 409 124 L 416 128 L 430 128 L 433 126 L 434 129 Q 433 132 441 130 L 442 129 L 442 91 L 443 90 L 442 87 Q 440 83 434 85 L 432 96 L 432 118 L 424 120 L 419 119 L 416 115 L 416 92 L 417 88 Q 415 83 408 85 Z M 519 85 L 516 88 L 516 91 L 533 123 L 525 144 L 525 149 Q 527 151 533 150 L 535 147 L 542 127 L 559 92 L 559 87 Q 558 84 552 85 L 539 111 L 526 88 Q 525 84 519 85 Z M 53 94 L 41 97 L 31 102 Q 21 109 16 121 L 17 124 Q 24 117 34 113 L 50 109 L 63 109 L 74 111 L 89 117 L 120 135 L 132 138 L 135 140 L 140 140 L 146 142 L 154 142 L 155 143 L 170 142 Q 172 139 178 140 Q 191 137 200 129 L 209 116 Q 210 113 208 114 L 204 119 L 194 126 L 177 130 L 151 129 L 138 126 L 130 123 L 99 104 L 85 98 L 68 94 L 53 94 Z " /><path fill="rgb(0,0,0)" stroke="rgb(0,0,0)" stroke-width="1" opacity="0" d="M 381.5 93 L 388 97.5 L 389 99.5 L 389 112.5 L 384.5 118 L 379.5 120 L 373 116.5 Q 369 113 371 103.5 Q 372.3 97.8 376.5 95 L 381.5 93 Z " /><path fill="rgb(0,0,0)" stroke="rgb(0,0,0)" stroke-width="1" opacity="0" d="M 469.5 93 Q 476.1 93.4 479 97.5 L 480 99.5 L 480 116 L 473.5 120 L 468.5 121 Q 462 119.5 459 114.5 Q 456.3 110.7 458 102.5 L 463.5 95 L 469.5 93 Z " /><path fill="rgb(243,243,243)" stroke="rgb(243,243,243)" stroke-width="1" opacity="0.44313725490196076" d="M 344.5 61 L 344 62.5 L 343.5 81 L 343 62.5 L 344.5 61 Z " /><path fill="rgb(243,243,243)" stroke="rgb(243,243,243)" stroke-width="1" opacity="0.44313725490196076" d="M 350.5 61 L 351.5 63 L 350.5 61 Z " /><path fill="rgb(243,243,243)" stroke="rgb(243,243,243)" stroke-width="1" opacity="0.44313725490196076" d="M 483.5 61 L 483 62.5 L 482.5 67 L 482 62.5 L 483.5 61 Z " /><path fill="rgb(243,243,243)" stroke="rgb(243,243,243)" stroke-width="1" opacity="0.44313725490196076" d="M 489.5 61 Q 492.7 64.3 491 72.5 L 490 72.5 Q 490.6 64.3 489.5 61 Z " /><path fill="rgb(243,243,243)" stroke="rgb(243,243,243)" stroke-width="1" opacity="0.44313725490196076" d="M 503.5 61 L 503 62.5 L 502.5 73 L 502 62.5 L 503.5 61 Z " /><path fill="rgb(243,243,243)" stroke="rgb(243,243,243)" stroke-width="1" opacity="0.44313725490196076" d="M 509.5 61 L 511 63.5 L 510 63.5 L 509.5 61 Z " /><path fill="rgb(243,243,243)" stroke="rgb(243,243,243)" stroke-width="1" opacity="0.44313725490196076" d="M 352.5 64 L 353 72.5 L 352 72.5 L 352.5 64 Z " /><path fill="rgb(243,243,243)" stroke="rgb(243,243,243)" stroke-width="1" opacity="0.44313725490196076" d="M 332.5 66 L 334 68.5 L 333 68.5 L 332.5 66 Z " /><path fill="rgb(243,243,243)" stroke="rgb(243,243,243)" stroke-width="1" opacity="0.44313725490196076" d="M 481.5 69 L 482 80.5 L 481 80.5 L 481.5 69 Z " /><path fill="rgb(243,243,243)" stroke="rgb(243,243,243)" stroke-width="1" opacity="0.44313725490196076" d="M 308.5 70 L 299 80.5 L 291.5 94 L 291 92.5 L 303 74 L 308.5 70 Z " /><path fill="rgb(243,243,243)" stroke="rgb(243,243,243)" stroke-width="1" opacity="0.44313725490196076" d="M 334.5 70 L 335 79.5 L 334 82 L 332 81.5 L 334 79.5 L 334.5 70 Z " /><path fill="rgb(243,243,243)" stroke="rgb(243,243,243)" stroke-width="1" opacity="0.44313725490196076" d="M 510.5 73 L 511 110.5 L 510 110.5 L 510.5 73 Z " /><path fill="rgb(243,243,243)" stroke="rgb(243,243,243)" stroke-width="1" opacity="0.44313725490196076" d="M 317.5 75 L 320 75.5 L 317.5 76 L 317.5 75 Z " /><path fill="rgb(243,243,243)" stroke="rgb(243,243,243)" stroke-width="1" opacity="0.44313725490196076" d="M 322.5 75 L 326 77.5 L 328 81.5 L 326 80.5 L 323.5 76 L 322.5 75 Z " /><path fill="rgb(243,243,243)" stroke="rgb(243,243,243)" stroke-width="1" opacity="0.44313725490196076" d="M 315.5 76 L 314.5 78 L 308 83.5 Q 301.4 90.9 298.5 102 L 298 99.5 Q 303.1 85.6 313.5 77 L 315.5 76 Z " /><path fill="rgb(243,243,243)" stroke="rgb(243,243,243)" stroke-width="1" opacity="0.44313725490196076" d="M 489.5 77 L 490 86.5 L 489 86.5 L 489.5 77 Z " /><path fill="rgb(243,243,243)" stroke="rgb(243,243,243)" stroke-width="1" opacity="0.44313725490196076" d="M 343.5 82 L 344 89.5 L 343 89.5 L 343.5 82 Z " /><path fill="rgb(243,243,243)" stroke="rgb(243,243,243)" stroke-width="1" opacity="0.44313725490196076" d="M 408 85 L 410 85.5 Q 407.3 86.8 407.5 91 L 407 87.5 L 408 85 Z " /><path fill="rgb(243,243,243)" stroke="rgb(243,243,243)" stroke-width="1" opacity="0.44313725490196076" d="M 414.5 85 Q 417.8 85.8 417 90.5 L 416 90.5 Q 416.4 85.8 414.5 85 Z " /><path fill="rgb(243,243,243)" stroke="rgb(243,243,243)" stroke-width="1" opacity="0.44313725490196076" d="M 440.5 85 L 441.5 87 L 440.5 85 Z " /><path fill="rgb(243,243,243)" stroke="rgb(243,243,243)" stroke-width="1" opacity="0.44313725490196076" d="M 518.5 85 L 517 87.5 L 516.5 91 L 516 87.5 L 518.5 85 Z " /><path fill="rgb(243,243,243)" stroke="rgb(243,243,243)" stroke-width="1" opacity="0.44313725490196076" d="M 523.5 85 Q 532.9 96.1 538.5 111 L 540 110.5 L 538.5 113 Q 531.8 97 523.5 85 Z " /><path fill="rgb(243,243,243)" stroke="rgb(243,243,243)" stroke-width="1" opacity="0.44313725490196076" d="M 551.5 85 L 551 86.5 L 543.5 102 L 543 100.5 L 551.5 85 Z " /><path fill="rgb(243,243,243)" stroke="rgb(243,243,243)" stroke-width="1" opacity="0.44313725490196076" d="M 556.5 85 L 559 86.5 L 558.5 88 L 558 86 L 556.5 85 Z " /><path fill="rgb(243,243,243)" stroke="rgb(243,243,243)" stroke-width="1" opacity="0.44313725490196076" d="M 478.5 86 L 480.5 89 L 478.5 86 Z " /><path fill="rgb(243,243,243)" stroke="rgb(243,243,243)" stroke-width="1" opacity="0.44313725490196076" d="M 371.5 87 L 370.5 89 L 371.5 87 Z " /><path fill="rgb(243,243,243)" stroke="rgb(243,243,243)" stroke-width="1" opacity="0.44313725490196076" d="M 391.5 87 Q 397.6 90.9 398 100.5 L 397 100.5 L 396 94.5 L 391.5 87 Z " /><path fill="rgb(243,243,243)" stroke="rgb(243,243,243)" stroke-width="1" opacity="0.44313725490196076" d="M 433.5 87 L 434 90.5 L 433 90.5 L 433.5 87 Z " /><path fill="rgb(243,243,243)" stroke="rgb(243,243,243)" stroke-width="1" opacity="0.44313725490196076" d="M 459.5 87 L 458.5 89 L 455 91.5 L 450.5 101 L 450 98.5 Q 452.3 91.8 457.5 88 L 459.5 87 Z " /><path fill="rgb(243,243,243)" stroke="rgb(243,243,243)" stroke-width="1" opacity="0.44313725490196076" d="M 351.5 89 L 352 116.5 L 351 116.5 L 351.5 89 Z " /><path fill="rgb(243,243,243)" stroke="rgb(243,243,243)" stroke-width="1" opacity="0.44313725490196076" d="M 368.5 89 L 368 90.5 L 363.5 98 L 363 96.5 L 368.5 89 Z " /><path fill="rgb(243,243,243)" stroke="rgb(243,243,243)" stroke-width="1" opacity="0.44313725490196076" d="M 558.5 89 L 559 91.5 L 555.5 98 L 555 96.5 L 558.5 89 Z " /><path fill="rgb(243,243,243)" stroke="rgb(243,243,243)" stroke-width="1" opacity="0.44313725490196076" d="M 488.5 90 L 489 116.5 L 488 116.5 L 488.5 90 Z " /><path fill="rgb(243,243,243)" stroke="rgb(243,243,243)" stroke-width="1" opacity="0.44313725490196076" d="M 501.5 91 L 502 114.5 L 501 114.5 L 501.5 91 Z " /><path fill="rgb(243,243,243)" stroke="rgb(243,243,243)" stroke-width="1" opacity="0.44313725490196076" d="M 517.5 92 L 521 97.5 L 519 96.5 L 517.5 92 Z " /><path fill="rgb(243,243,243)" stroke="rgb(243,243,243)" stroke-width="1" opacity="0.44313725490196076" d="M 406.5 93 L 407 109.5 L 406 109.5 L 406.5 93 Z " /><path fill="rgb(243,243,243)" stroke="rgb(243,243,243)" stroke-width="1" opacity="0.44313725490196076" d="M 415.5 93 L 416 113.5 L 415 113.5 L 415.5 93 Z " /><path fill="rgb(243,243,243)" stroke="rgb(243,243,243)" stroke-width="1" opacity="0.44313725490196076" d="M 466.5 93 L 469 93.5 L 466.5 94 L 466.5 93 Z " /><path fill="rgb(243,243,243)" stroke="rgb(243,243,243)" stroke-width="1" opacity="0.44313725490196076" d="M 471.5 93 L 474 93.5 L 471.5 94 L 471.5 93 Z " /><path fill="rgb(243,243,243)" stroke="rgb(243,243,243)" stroke-width="1" opacity="0.44313725490196076" d="M 376.5 94 L 378 94.5 L 373 98.5 Q 369.7 103.7 370.5 113 L 370 103.5 Q 371.5 97 376.5 94 Z " /><path fill="rgb(243,243,243)" stroke="rgb(243,243,243)" stroke-width="1" opacity="0.44313725490196076" d="M 385.5 94 L 388 95 L 389 98.5 L 388 98.5 L 385.5 94 Z " /><path fill="rgb(243,243,243)" stroke="rgb(243,243,243)" stroke-width="1" opacity="0.44313725490196076" d="M 463.5 94 L 465 94.5 L 459.5 99 L 463.5 94 Z " /><path fill="rgb(243,243,243)" stroke="rgb(243,243,243)" stroke-width="1" opacity="0.44313725490196076" d="M 432.5 95 L 433 117.5 L 430.5 119 L 430.5 118 L 432 117.5 L 432.5 95 Z " /><path fill="rgb(243,243,243)" stroke="rgb(243,243,243)" stroke-width="1" opacity="0.44313725490196076" d="M 477.5 95 Q 481.7 96.3 481 102.5 L 480 102.5 L 480 99.5 L 477.5 95 Z " /><path fill="rgb(243,243,243)" stroke="rgb(243,243,243)" stroke-width="1" opacity="0.44313725490196076" d="M 441.5 96 L 442 128.5 L 439.5 130 L 439.5 129 L 441 128.5 L 441.5 96 Z " /><path fill="rgb(243,243,243)" stroke="rgb(243,243,243)" stroke-width="1" opacity="0.44313725490196076" d="M 289.5 98 L 290 101.5 L 289 101.5 L 289.5 98 Z " /><path fill="rgb(243,243,243)" stroke="rgb(243,243,243)" stroke-width="1" opacity="0.44313725490196076" d="M 362.5 99 L 363 101.5 L 362 102.5 L 361.5 113 L 361 102.5 L 362.5 99 Z " /><path fill="rgb(243,243,243)" stroke="rgb(243,243,243)" stroke-width="1" opacity="0.44313725490196076" d="M 554.5 99 L 555 100.5 L 548.5 113 L 548 111.5 L 554.5 99 Z " /><path fill="rgb(243,243,243)" stroke="rgb(243,243,243)" stroke-width="1" opacity="0.44313725490196076" d="M 389.5 100 L 390 111.5 L 389 111.5 L 389.5 100 Z " /><path fill="rgb(243,243,243)" stroke="rgb(243,243,243)" stroke-width="1" opacity="0.44313725490196076" d="M 458.5 100 L 459 101.5 L 458 102.5 L 458 112.5 L 463.5 119 L 465 119.5 L 463.5 120 L 457 112.5 L 457 102.5 L 458.5 100 Z " /><path fill="rgb(243,243,243)" stroke="rgb(243,243,243)" stroke-width="1" opacity="0.44313725490196076" d="M 522.5 101 L 534 124.5 L 531.5 129 L 531 127.5 L 533 122.5 L 522.5 101 Z " /><path fill="rgb(243,243,243)" stroke="rgb(243,243,243)" stroke-width="1" opacity="0.44313725490196076" d="M 342.5 102 L 343 119.5 L 342 119.5 L 342.5 102 Z " /><path fill="rgb(243,243,243)" stroke="rgb(243,243,243)" stroke-width="1" opacity="0.44313725490196076" d="M 449.5 102 L 450 114.5 L 456.5 125 L 459 126.5 L 457.5 126 L 453 122.5 Q 446.6 115.9 449.5 102 Z " /><path fill="rgb(243,243,243)" stroke="rgb(243,243,243)" stroke-width="1" opacity="0.44313725490196076" d="M 542.5 103 L 543 104.5 L 540.5 109 L 540 107.5 L 542.5 103 Z " /><path fill="rgb(243,243,243)" stroke="rgb(243,243,243)" stroke-width="1" opacity="0.44313725490196076" d="M 288.5 104 L 289 109.5 L 288 109.5 L 288.5 104 Z " /><path fill="rgb(243,243,243)" stroke="rgb(243,243,243)" stroke-width="1" opacity="0.44313725490196076" d="M 297.5 104 Q 297.5 113.5 303 117.5 L 299 114.5 Q 295.9 110.6 297.5 104 Z " /><path fill="rgb(243,243,243)" stroke="rgb(243,243,243)" stroke-width="1" opacity="0.44313725490196076" d="M 397.5 110 L 398 113.5 L 397 113.5 L 397.5 110 Z " /><path fill="rgb(243,243,243)" stroke="rgb(243,243,243)" stroke-width="1" opacity="0.44313725490196076" d="M 480.5 110 L 481 114.5 L 480 114.5 L 480.5 110 Z " /><path fill="rgb(243,243,243)" stroke="rgb(243,243,243)" stroke-width="1" opacity="0.44313725490196076" d="M 289.5 111 L 290 113.5 L 289 113.5 L 289.5 111 Z " /><path fill="rgb(243,243,243)" stroke="rgb(243,243,243)" stroke-width="1" opacity="0.44313725490196076" d="M 325.5 111 L 327 111.5 L 320.5 116 L 322.5 113 L 325.5 111 Z " /><path fill="rgb(243,243,243)" stroke="rgb(243,243,243)" stroke-width="1" opacity="0.44313725490196076" d="M 330.5 111 Q 333.8 111.8 333 116.5 L 330.5 120 L 326.5 123 L 329.5 119 Q 331.8 119.8 331 117.5 L 332 113.5 L 330.5 111 Z " /><path fill="rgb(243,243,243)" stroke="rgb(243,243,243)" stroke-width="1" opacity="0.44313725490196076" d="M 388.5 113 L 389 114.5 L 383.5 119 L 383.5 118 L 388 114.5 L 388.5 113 Z " /><path fill="rgb(243,243,243)" stroke="rgb(243,243,243)" stroke-width="1" opacity="0.44313725490196076" d="M 407.5 113 L 408 117.5 L 407 117.5 L 407.5 113 Z " /><path fill="rgb(243,243,243)" stroke="rgb(243,243,243)" stroke-width="1" opacity="0.44313725490196076" d="M 362.5 114 Q 364 121.5 369.5 125 L 372 126.5 L 370.5 126 L 364 120.5 Q 361 118 362.5 114 Z " /><path fill="rgb(243,243,243)" stroke="rgb(243,243,243)" stroke-width="1" opacity="0.44313725490196076" d="M 371.5 114 L 374.5 118 L 376 118.5 L 374.5 119 L 371 115.5 L 371.5 114 Z " /><path fill="rgb(243,243,243)" stroke="rgb(243,243,243)" stroke-width="1" opacity="0.44313725490196076" d="M 547.5 114 L 548 115.5 L 543.5 124 L 543 122.5 L 547.5 114 Z " /><path fill="rgb(243,243,243)" stroke="rgb(243,243,243)" stroke-width="1" opacity="0.44313725490196076" d="M 290.5 115 Q 292.8 122.1 299 125.5 L 296.5 124 L 294 122.5 L 290 116.5 L 290.5 115 Z " /><path fill="rgb(243,243,243)" stroke="rgb(243,243,243)" stroke-width="1" opacity="0.44313725490196076" d="M 396.5 115 L 397 116.5 L 389.5 126 L 387.5 127 L 388.5 125 L 393 121.5 L 396.5 115 Z " /><path fill="rgb(243,243,243)" stroke="rgb(243,243,243)" stroke-width="1" opacity="0.44313725490196076" d="M 416.5 115 L 418 118.5 L 416 117.5 L 416.5 115 Z " /><path fill="rgb(243,243,243)" stroke="rgb(243,243,243)" stroke-width="1" opacity="0.44313725490196076" d="M 318.5 116 L 317.5 118 L 314.5 119 L 314.5 118 L 318.5 116 Z " /><path fill="rgb(243,243,243)" stroke="rgb(243,243,243)" stroke-width="1" opacity="0.44313725490196076" d="M 478.5 116 L 476.5 119 L 478.5 116 Z " /><path fill="rgb(243,243,243)" stroke="rgb(243,243,243)" stroke-width="1" opacity="0.44313725490196076" d="M 310.5 119 L 313 119.5 L 310.5 120 L 310.5 119 Z " /><path fill="rgb(243,243,243)" stroke="rgb(243,243,243)" stroke-width="1" opacity="0.44313725490196076" d="M 408.5 119 L 411.5 125 L 414 126.5 L 412.5 126 L 409 123.5 L 408.5 119 Z " /><path fill="rgb(243,243,243)" stroke="rgb(243,243,243)" stroke-width="1" opacity="0.44313725490196076" d="M 424.5 119 L 428 119.5 L 424.5 120 L 424.5 119 Z " /><path fill="rgb(243,243,243)" stroke="rgb(243,243,243)" stroke-width="1" opacity="0.44313725490196076" d="M 470.5 120 L 473 120.5 L 470.5 121 L 470.5 120 Z " /><path fill="rgb(243,243,243)" stroke="rgb(243,243,243)" stroke-width="1" opacity="0.44313725490196076" d="M 489.5 120 L 490 126.5 L 487.5 128 L 489 125.5 L 489.5 120 Z " /><path fill="rgb(243,243,243)" stroke="rgb(243,243,243)" stroke-width="1" opacity="0.44313725490196076" d="M 509.5 121 L 510 126.5 L 509 126.5 L 509.5 121 Z " /><path fill="rgb(243,243,243)" stroke="rgb(243,243,243)" stroke-width="1" opacity="0.44313725490196076" d="M 350.5 122 L 351 127.5 L 348.5 129 L 348.5 128 L 350 127.5 L 350.5 122 Z " /><path fill="rgb(243,243,243)" stroke="rgb(243,243,243)" stroke-width="1" opacity="0.44313725490196076" d="M 324.5 123 L 323.5 125 L 320.5 126 L 320.5 125 L 324.5 123 Z " /><path fill="rgb(243,243,243)" stroke="rgb(243,243,243)" stroke-width="1" opacity="0.44313725490196076" d="M 480.5 125 L 484 127.5 L 481.5 126 L 479.5 127 L 480.5 125 Z " /><path fill="rgb(243,243,243)" stroke="rgb(243,243,243)" stroke-width="1" opacity="0.44313725490196076" d="M 342.5 126 L 344 128.5 L 342 127.5 L 342.5 126 Z " /><path fill="rgb(243,243,243)" stroke="rgb(243,243,243)" stroke-width="1" opacity="0.44313725490196076" d="M 433.5 126 L 436 129.5 L 434 130 L 433.5 126 Z " /><path fill="rgb(243,243,243)" stroke="rgb(243,243,243)" stroke-width="1" opacity="0.44313725490196076" d="M 501.5 126 L 503 128.5 L 501 127.5 L 501.5 126 Z " /><path fill="rgb(243,243,243)" stroke="rgb(243,243,243)" stroke-width="1" opacity="0.44313725490196076" d="M 427.5 127 L 430 127.5 L 427.5 128 L 427.5 127 Z " /><path fill="rgb(243,243,243)" stroke="rgb(243,243,243)" stroke-width="1" opacity="0.44313725490196076" d="M 476.5 127 L 478 127.5 L 474.5 129 L 474.5 128 L 476.5 127 Z " /><path fill="rgb(243,243,243)" stroke="rgb(243,243,243)" stroke-width="1" opacity="0.44313725490196076" d="M 541.5 127 L 542 128.5 L 532.5 150 L 533 148.5 L 541.5 127 Z " /><path fill="rgb(243,243,243)" stroke="rgb(243,243,243)" stroke-width="1" opacity="0.44313725490196076" d="M 529.5 132 L 530 133.5 L 527.5 139 L 527 137.5 L 529.5 132 Z " /><path fill="rgb(243,243,243)" stroke="rgb(243,243,243)" stroke-width="1" opacity="0.44313725490196076" d="M 525.5 143 L 527 149.5 L 525 148.5 L 525.5 143 Z " /><path fill="rgb(252,252,252)" stroke="rgb(252,252,252)" stroke-width="1" opacity="0.9882352941176471" d="M 345.5 61 Q 351 60 352 63.5 L 351 121.5 L 350 128 L 344.5 129 Q 341 127 342 120.5 L 343 119.5 L 343 90.5 Q 345.8 88.7 344 82.5 L 344 80.5 L 344 62.5 L 345.5 61 Z " /><path fill="rgb(252,252,252)" stroke="rgb(252,252,252)" stroke-width="1" opacity="0.9882352941176471" d="M 484.5 61 Q 489.9 59.1 489 62.5 L 490 63.5 L 490 76.5 L 489 77.5 L 489 89.5 L 488 90.5 L 488 116.5 L 489 117.5 L 489 125.5 Q 488.5 128.5 484.5 128 L 480.5 125 L 473.5 129 L 464.5 129 L 455 123.5 Q 447.7 117.3 450 101.5 Q 452.3 93.8 457.5 89 Q 462.5 83.5 474.5 85 L 480.5 89 L 482 82.5 L 482 80.5 Q 480.2 67.7 484.5 61 Z M 467 93 L 464 94 L 457 103 Q 455 111 458 115 Q 460 120 467 121 L 473 121 L 481 115 L 480 110 Q 479 104 481 103 L 480 98 Q 477 92 467 93 Z " /><path fill="rgb(252,252,252)" stroke="rgb(252,252,252)" stroke-width="1" opacity="0.9882352941176471" d="M 504.5 61 Q 509 60 510 62.5 Q 512.3 65.7 511 72.5 L 510 73.5 L 510 120.5 L 509 121.5 L 509 128 L 503.5 129 Q 498.9 125.6 501 115.5 L 502 114.5 L 502 73.5 L 503 72.5 L 503 62.5 L 504.5 61 Z " /><path fill="rgb(252,252,252)" stroke="rgb(252,252,252)" stroke-width="1" opacity="0.9882352941176471" d="M 328.5 66 Q 332.3 65.3 333 67.5 Q 335.7 71.3 334 79.5 Q 333.3 82.8 328.5 82 L 323.5 75 Q 311.1 75.1 307 83.5 L 299 96.5 L 297 109.5 Q 298.3 115.3 302.5 118 Q 305.5 121 312.5 120 L 325.5 112 L 329.5 111 Q 332.8 111.8 332 116.5 L 331 119 L 319.5 126 Q 314.1 129.1 304.5 128 Q 295.9 125.6 292 118.5 L 289 110.5 L 289 102.5 Q 294.1 81.1 309.5 70 L 316.5 67 L 327.5 67 L 328.5 66 Z " /><path fill="rgb(252,252,252)" stroke="rgb(252,252,252)" stroke-width="1" opacity="0.9882352941176471" d="M 377.5 85 Q 389 83.5 393 89.5 Q 398.7 96.3 398 109.5 Q 396.3 119.8 389.5 125 Q 385.3 129.3 375.5 128 Q 368.8 125.8 365 120.5 Q 360.4 114.7 362 102.5 Q 363.9 93.9 369.5 89 L 377.5 85 Z M 380 93 L 377 94 Q 372 97 370 104 L 371 116 L 378 120 L 385 119 L 390 112 Q 391 100 388 95 Q 386 92 380 93 Z " /><path fill="rgb(252,252,252)" stroke="rgb(252,252,252)" stroke-width="1" opacity="0.9882352941176471" d="M 410.5 85 Q 415.3 84.3 416 87.5 Q 417.2 92.2 415 93.5 L 415 113.5 L 417.5 119 Q 420.7 121.3 427.5 120 L 433 117.5 L 433 93.5 L 434 92.5 L 434 90.5 Q 433 86 435.5 85 Q 441 84 442 87.5 Q 443.5 93 441 94.5 L 441 96.5 L 441 128.5 L 439.5 129 L 436.5 130 L 434 126 L 426.5 128 L 417.5 128 L 410 123.5 L 407 112.5 L 407 91.5 L 408 87.5 L 410.5 85 Z " /><path fill="rgb(252,252,252)" stroke="rgb(252,252,252)" stroke-width="1" opacity="0.9882352941176471" d="M 519.5 85 Q 524.3 84.3 525 87.5 L 538.5 113 L 552.5 85 L 558 86 L 559 88.5 L 531.5 150 Q 527 151 526 148.5 L 526 142.5 L 534 122.5 L 517 91.5 L 517 87.5 L 519.5 85 Z " /><path fill="rgb(169,43,127)" stroke="rgb(169,43,127)" stroke-width="1" opacity="0.8862745098039215" d="M 166.5 41 Q 194.1 40.4 205 56.5 L 212 70.5 Q 214.3 77.2 213 87.5 L 212 91 L 226.5 90 L 242.5 95 L 251 102.5 Q 256.7 109.8 259 120.5 L 259 135.5 Q 254.6 153.1 241.5 162 L 227.5 168 L 211.5 168 L 197 162 Q 195.7 158.3 201.5 160 Q 206.9 163.6 217.5 162 Q 230.8 159.8 238 151.5 Q 246.4 142.9 246 125.5 Q 243.6 113.4 235.5 107 L 221.5 100 L 208.5 100 L 197.5 104 L 198 102.5 L 202 93.5 L 202 79.5 Q 199.5 69 192.5 63 L 180.5 56 L 168.5 55 L 156.5 59 L 150 64.5 L 143 76.5 L 141.5 89 L 127.5 72 Q 118.9 63.6 99.5 66 L 83.5 72 L 65.5 86 L 66 84.5 Q 71.8 73.3 81.5 66 L 97.5 57 L 112.5 56 L 125.5 60 L 135.5 69 Q 137.4 55.4 146.5 49 L 152.5 45 L 166.5 41 Z " /><path fill="rgb(169,43,127)" stroke="rgb(169,43,127)" stroke-width="1" opacity="0.8862745098039215" d="M 52.5 94 L 67.5 94 L 84.5 98 L 98.5 104 L 129.5 123 L 137.5 126 L 150.5 129 L 176.5 130 L 193.5 126 L 204 118.5 L 207.5 114 Q 209.8 113.3 209 115.5 L 199.5 129 Q 190.7 136.7 177.5 140 Q 171.8 139.3 169.5 142 L 154.5 143 L 153.5 142 L 145.5 142 L 139.5 140 L 134.5 140 L 131.5 138 L 119.5 135 L 88.5 117 L 73.5 111 L 62.5 109 L 49.5 109 L 33.5 113 Q 23.5 117 16.5 124 L 16 120.5 Q 20.9 108.9 30.5 102 L 40.5 97 L 52.5 94 Z " /></svg>