<svg width="588" height="183" version="1.1" xmlns="http://www.w3.org/2000/svg" ><path fill="rgb(0,0,0)" stroke="rgb(0,0,0)" stroke-width="1" opacity="0" d="M 0 0 L 587.5 0 L 588 0.5 L 588 183 L 0.5 183 L 0 182.5 L 0 0 Z M 171 39 L 163 41 L 156 45 L 153 47 Q 143 53 142 67 L 139 64 L 131 57 L 120 54 L 109 54 L 101 56 Q 89 60 82 69 Q 83 71 81 70 L 72 81 L 72 83 L 89 71 L 101 65 L 107 65 L 109 65 L 110 64 L 118 64 L 120 64 Q 130 66 136 72 L 137 75 L 140 76 L 148 87 L 148 85 L 148 81 L 150 73 L 154 66 L 162 58 L 170 54 Q 175 56 177 53 L 187 54 L 199 61 Q 205 67 208 78 Q 210 94 203 101 L 204 103 L 215 98 L 227 98 L 241 104 L 249 114 L 252 124 L 251 137 L 248 144 L 242 152 L 234 157 L 223 160 L 216 160 L 208 158 L 203 159 L 207 162 L 219 166 Q 229 167 237 165 Q 246 162 253 156 Q 262 148 265 134 L 265 119 Q 263 108 258 102 L 249 93 L 234 88 L 218 89 L 219 86 L 219 73 Q 217 62 212 56 Q 205 45 193 41 Q 184 37 171 39 Z M 352 61 L 348 66 L 348 122 L 352 126 L 358 125 L 359 123 L 359 64 Q 357 60 352 61 Z M 488 61 L 484 67 Q 485 77 483 84 L 479 82 L 470 82 L 460 87 L 454 95 L 452 103 Q 452 114 457 120 L 469 126 Q 478 128 483 124 L 488 126 L 493 125 L 494 123 Q 495 118 493 117 L 493 90 L 494 89 L 495 65 Q 494 60 488 61 Z M 507 61 L 503 66 L 503 122 L 504 124 Q 505 127 511 126 L 514 123 L 514 64 Q 512 60 507 61 Z M 334 64 L 333 65 L 323 65 L 313 70 Q 300 80 295 97 Q 293 113 300 120 L 312 126 Q 321 127 327 124 L 338 117 Q 340 115 339 110 L 336 107 L 333 107 L 319 115 L 311 114 Q 306 111 305 105 L 307 96 L 313 86 L 322 77 L 330 76 L 332 81 L 339 82 L 342 78 L 342 73 L 340 65 L 334 64 Z M 385 82 L 376 86 Q 369 91 367 101 Q 366 112 370 118 Q 374 123 382 126 Q 392 127 397 123 Q 402 118 405 110 L 405 97 L 400 86 L 393 82 L 385 82 Z M 415 82 L 411 87 Q 413 92 410 94 L 411 115 L 414 122 L 422 126 Q 431 127 437 124 Q 438 128 444 127 L 447 124 L 447 85 Q 445 81 440 82 L 436 88 L 436 114 Q 431 116 424 115 L 421 109 L 421 94 L 422 93 Q 423 86 421 83 L 415 82 Z M 525 82 L 522 83 L 520 88 L 537 118 L 537 121 L 529 139 L 529 143 Q 530 147 537 146 L 540 143 L 545 128 L 564 90 L 564 85 Q 562 81 557 82 L 552 88 L 544 106 L 531 85 Q 530 81 525 82 Z M 63 91 L 44 96 L 37 100 Q 26 107 22 121 L 22 122 Q 32 112 50 108 L 74 108 L 79 109 L 98 117 L 128 134 L 141 138 L 151 140 L 158 140 L 159 141 L 169 141 L 184 138 L 204 129 L 213 118 L 215 111 Q 212 110 213 113 L 200 124 L 189 127 L 180 127 L 179 128 L 158 127 L 144 124 L 133 119 L 100 99 L 97 99 L 89 95 L 71 91 L 68 92 L 63 91 Z " /><path fill="rgb(0,0,0)" stroke="rgb(0,0,0)" stroke-width="1" opacity="0" d="M 385.5 93 Q 391.8 91.8 393 95.5 Q 396 99.5 395 107.5 L 390.5 114 L 383.5 115 L 379 111.5 Q 376.7 108.3 378 101.5 L 383.5 94 L 385.5 93 Z " /><path fill="rgb(0,0,0)" stroke="rgb(0,0,0)" stroke-width="1" opacity="0" d="M 470.5 93 Q 479.5 91.5 482 96.5 L 483 102.5 L 482 104.5 L 483 108.5 L 483 110.5 L 480.5 113 Q 477.5 116 470.5 115 L 463 109.5 L 462 106.5 L 463 103.5 Q 462.1 95.6 467.5 94 L 470.5 93 Z " /><path fill="rgb(2,2,2)" stroke="rgb(2,2,2)" stroke-width="1" opacity="0.7215686274509804" d="M 351.5 61 L 353 61.5 L 349.5 64 L 351.5 61 Z " /><path fill="rgb(2,2,2)" stroke="rgb(2,2,2)" stroke-width="1" opacity="0.7215686274509804" d="M 487.5 61 L 489 61.5 L 485.5 64 L 487.5 61 Z " /><path fill="rgb(2,2,2)" stroke="rgb(2,2,2)" stroke-width="1" opacity="0.7215686274509804" d="M 506.5 61 L 508 61.5 L 504.5 64 L 506.5 61 Z " /><path fill="rgb(2,2,2)" stroke="rgb(2,2,2)" stroke-width="1" opacity="0.7215686274509804" d="M 357.5 62 L 359 63.5 L 359 122.5 L 357.5 125 L 357 123.5 L 358 122.5 L 358 63.5 L 357.5 62 Z " /><path fill="rgb(2,2,2)" stroke="rgb(2,2,2)" stroke-width="1" opacity="0.7215686274509804" d="M 512.5 62 L 514 63.5 L 514 122.5 L 512 123.5 L 513 122.5 L 513 63.5 L 512.5 62 Z " /><path fill="rgb(2,2,2)" stroke="rgb(2,2,2)" stroke-width="1" opacity="0.7215686274509804" d="M 493.5 63 L 495 64.5 L 495 73.5 L 494 73.5 Q 494.8 65.3 493.5 63 Z " /><path fill="rgb(2,2,2)" stroke="rgb(2,2,2)" stroke-width="1" opacity="0.7215686274509804" d="M 333.5 64 L 335 64.5 L 329.5 66 L 329.5 65 L 333.5 64 Z " /><path fill="rgb(2,2,2)" stroke="rgb(2,2,2)" stroke-width="1" opacity="0.7215686274509804" d="M 322.5 65 L 325 65.5 L 322.5 66 L 322.5 65 Z " /><path fill="rgb(2,2,2)" stroke="rgb(2,2,2)" stroke-width="1" opacity="0.7215686274509804" d="M 348.5 65 L 349 121.5 L 348 121.5 L 348.5 65 Z " /><path fill="rgb(2,2,2)" stroke="rgb(2,2,2)" stroke-width="1" opacity="0.7215686274509804" d="M 503.5 65 L 504 121.5 L 503 121.5 L 503.5 65 Z " /><path fill="rgb(2,2,2)" stroke="rgb(2,2,2)" stroke-width="1" opacity="0.7215686274509804" d="M 484.5 66 L 485 74.5 L 484 74.5 L 484.5 66 Z " /><path fill="rgb(2,2,2)" stroke="rgb(2,2,2)" stroke-width="1" opacity="0.7215686274509804" d="M 340.5 67 L 341 69.5 L 340 69.5 L 340.5 67 Z " /><path fill="rgb(2,2,2)" stroke="rgb(2,2,2)" stroke-width="1" opacity="0.7215686274509804" d="M 315.5 68 L 314.5 70 L 315.5 68 Z " /><path fill="rgb(2,2,2)" stroke="rgb(2,2,2)" stroke-width="1" opacity="0.7215686274509804" d="M 312.5 70 L 307.5 76 L 312.5 70 Z " /><path fill="rgb(2,2,2)" stroke="rgb(2,2,2)" stroke-width="1" opacity="0.7215686274509804" d="M 341.5 72 L 342 77.5 L 341 77.5 L 341.5 72 Z " /><path fill="rgb(2,2,2)" stroke="rgb(2,2,2)" stroke-width="1" opacity="0.7215686274509804" d="M 305.5 78 L 303.5 81 L 305.5 78 Z " /><path fill="rgb(2,2,2)" stroke="rgb(2,2,2)" stroke-width="1" opacity="0.7215686274509804" d="M 319.5 78 L 313.5 85 L 319.5 78 Z " /><path fill="rgb(2,2,2)" stroke="rgb(2,2,2)" stroke-width="1" opacity="0.7215686274509804" d="M 340.5 79 L 338.5 82 L 337 81.5 L 340.5 79 Z " /><path fill="rgb(2,2,2)" stroke="rgb(2,2,2)" stroke-width="1" opacity="0.7215686274509804" d="M 483.5 79 L 484 85 L 480 83.5 L 481.5 83 L 483 83.5 L 483.5 79 Z " /><path fill="rgb(2,2,2)" stroke="rgb(2,2,2)" stroke-width="1" opacity="0.7215686274509804" d="M 493.5 80 L 494 88.5 L 493 88.5 L 493.5 80 Z " /><path fill="rgb(2,2,2)" stroke="rgb(2,2,2)" stroke-width="1" opacity="0.7215686274509804" d="M 302.5 82 L 301.5 84 L 302.5 82 Z " /><path fill="rgb(2,2,2)" stroke="rgb(2,2,2)" stroke-width="1" opacity="0.7215686274509804" d="M 390.5 82 L 393 82.5 L 390.5 83 L 390.5 82 Z " /><path fill="rgb(2,2,2)" stroke="rgb(2,2,2)" stroke-width="1" opacity="0.7215686274509804" d="M 439.5 82 L 441 82.5 L 437.5 85 L 439.5 82 Z " /><path fill="rgb(2,2,2)" stroke="rgb(2,2,2)" stroke-width="1" opacity="0.7215686274509804" d="M 469.5 82 L 472 82.5 L 469.5 83 L 469.5 82 Z " /><path fill="rgb(2,2,2)" stroke="rgb(2,2,2)" stroke-width="1" opacity="0.7215686274509804" d="M 476.5 82 L 479 82.5 L 476.5 83 L 476.5 82 Z " /><path fill="rgb(2,2,2)" stroke="rgb(2,2,2)" stroke-width="1" opacity="0.7215686274509804" d="M 556.5 82 L 558 82.5 L 554.5 85 L 556.5 82 Z " /><path fill="rgb(2,2,2)" stroke="rgb(2,2,2)" stroke-width="1" opacity="0.7215686274509804" d="M 445.5 83 L 447 85.5 L 446 85.5 L 445.5 83 Z " /><path fill="rgb(2,2,2)" stroke="rgb(2,2,2)" stroke-width="1" opacity="0.7215686274509804" d="M 529.5 83 L 530.5 85 L 529.5 83 Z " /><path fill="rgb(2,2,2)" stroke="rgb(2,2,2)" stroke-width="1" opacity="0.7215686274509804" d="M 562.5 83 L 564 85.5 L 563 85.5 L 562.5 83 Z " /><path fill="rgb(2,2,2)" stroke="rgb(2,2,2)" stroke-width="1" opacity="0.7215686274509804" d="M 378.5 84 L 377.5 86 L 378.5 84 Z " /><path fill="rgb(2,2,2)" stroke="rgb(2,2,2)" stroke-width="1" opacity="0.7215686274509804" d="M 463.5 84 L 465 84.5 L 462.5 86 L 463.5 84 Z " /><path fill="rgb(2,2,2)" stroke="rgb(2,2,2)" stroke-width="1" opacity="0.7215686274509804" d="M 300.5 85 L 300 86.5 L 298.5 90 L 298 88.5 L 300.5 85 Z " /><path fill="rgb(2,2,2)" stroke="rgb(2,2,2)" stroke-width="1" opacity="0.7215686274509804" d="M 421.5 85 L 422 92.5 L 421 92.5 L 421.5 85 Z " /><path fill="rgb(2,2,2)" stroke="rgb(2,2,2)" stroke-width="1" opacity="0.7215686274509804" d="M 312.5 86 L 310.5 89 L 312.5 86 Z " /><path fill="rgb(2,2,2)" stroke="rgb(2,2,2)" stroke-width="1" opacity="0.7215686274509804" d="M 375.5 86 L 372.5 90 L 375.5 86 Z " /><path fill="rgb(2,2,2)" stroke="rgb(2,2,2)" stroke-width="1" opacity="0.7215686274509804" d="M 411.5 86 L 412 89.5 L 411 89.5 L 411.5 86 Z " /><path fill="rgb(2,2,2)" stroke="rgb(2,2,2)" stroke-width="1" opacity="0.7215686274509804" d="M 531.5 86 L 532.5 88 L 531.5 86 Z " /><path fill="rgb(2,2,2)" stroke="rgb(2,2,2)" stroke-width="1" opacity="0.7215686274509804" d="M 553.5 86 L 553 87.5 L 546.5 101 L 546 99.5 L 553.5 86 Z " /><path fill="rgb(2,2,2)" stroke="rgb(2,2,2)" stroke-width="1" opacity="0.7215686274509804" d="M 436.5 87 L 437 95.5 L 436 95.5 L 436.5 87 Z " /><path fill="rgb(2,2,2)" stroke="rgb(2,2,2)" stroke-width="1" opacity="0.7215686274509804" d="M 459.5 87 L 458.5 89 L 459.5 87 Z " /><path fill="rgb(2,2,2)" stroke="rgb(2,2,2)" stroke-width="1" opacity="0.7215686274509804" d="M 400.5 88 L 401.5 90 L 400.5 88 Z " /><path fill="rgb(2,2,2)" stroke="rgb(2,2,2)" stroke-width="1" opacity="0.7215686274509804" d="M 521.5 89 L 523 91.5 L 521 90.5 L 521.5 89 Z " /><path fill="rgb(2,2,2)" stroke="rgb(2,2,2)" stroke-width="1" opacity="0.7215686274509804" d="M 533.5 89 L 536 92.5 L 534 91.5 L 533.5 89 Z " /><path fill="rgb(2,2,2)" stroke="rgb(2,2,2)" stroke-width="1" opacity="0.7215686274509804" d="M 371.5 91 L 371 92.5 L 368.5 99 L 368 96.5 L 371.5 91 Z " /><path fill="rgb(2,2,2)" stroke="rgb(2,2,2)" stroke-width="1" opacity="0.7215686274509804" d="M 446.5 91 L 447 123.5 L 446 123.5 L 446.5 91 Z " /><path fill="rgb(2,2,2)" stroke="rgb(2,2,2)" stroke-width="1" opacity="0.7215686274509804" d="M 456.5 91 L 456 92.5 L 454.5 96 L 454 94.5 L 456.5 91 Z " /><path fill="rgb(2,2,2)" stroke="rgb(2,2,2)" stroke-width="1" opacity="0.7215686274509804" d="M 296.5 93 L 297 95.5 L 295.5 100 L 295 96.5 L 296.5 93 Z " /><path fill="rgb(2,2,2)" stroke="rgb(2,2,2)" stroke-width="1" opacity="0.7215686274509804" d="M 391.5 93 Q 394.8 94.8 395 99.5 L 394 99.5 L 391.5 93 Z " /><path fill="rgb(2,2,2)" stroke="rgb(2,2,2)" stroke-width="1" opacity="0.7215686274509804" d="M 410.5 93 L 411 104.5 L 410 104.5 L 410.5 93 Z " /><path fill="rgb(2,2,2)" stroke="rgb(2,2,2)" stroke-width="1" opacity="0.7215686274509804" d="M 523.5 93 L 524.5 95 L 523.5 93 Z " /><path fill="rgb(2,2,2)" stroke="rgb(2,2,2)" stroke-width="1" opacity="0.7215686274509804" d="M 382.5 94 L 380 97.5 L 378.5 101 L 378 99.5 L 382.5 94 Z " /><path fill="rgb(2,2,2)" stroke="rgb(2,2,2)" stroke-width="1" opacity="0.7215686274509804" d="M 480.5 94 Q 483.5 94.5 483 98.5 L 482 98.5 L 480.5 94 Z " /><path fill="rgb(2,2,2)" stroke="rgb(2,2,2)" stroke-width="1" opacity="0.7215686274509804" d="M 536.5 94 L 540 99.5 L 538 98.5 L 536.5 94 Z " /><path fill="rgb(2,2,2)" stroke="rgb(2,2,2)" stroke-width="1" opacity="0.7215686274509804" d="M 420.5 95 L 421 105.5 L 420 105.5 L 420.5 95 Z " /><path fill="rgb(2,2,2)" stroke="rgb(2,2,2)" stroke-width="1" opacity="0.7215686274509804" d="M 465.5 95 L 464.5 97 L 465.5 95 Z " /><path fill="rgb(2,2,2)" stroke="rgb(2,2,2)" stroke-width="1" opacity="0.7215686274509804" d="M 492.5 95 L 493 110.5 L 492 110.5 L 492.5 95 Z " /><path fill="rgb(2,2,2)" stroke="rgb(2,2,2)" stroke-width="1" opacity="0.7215686274509804" d="M 404.5 96 L 405 99.5 L 404 99.5 L 404.5 96 Z " /><path fill="rgb(2,2,2)" stroke="rgb(2,2,2)" stroke-width="1" opacity="0.7215686274509804" d="M 453.5 97 L 454 99.5 L 453 99.5 L 453.5 97 Z " /><path fill="rgb(2,2,2)" stroke="rgb(2,2,2)" stroke-width="1" opacity="0.7215686274509804" d="M 526.5 98 L 530 103.5 L 528 102.5 L 526.5 98 Z " /><path fill="rgb(2,2,2)" stroke="rgb(2,2,2)" stroke-width="1" opacity="0.7215686274509804" d="M 305.5 99 L 306 103.5 L 305 103.5 L 305.5 99 Z " /><path fill="rgb(2,2,2)" stroke="rgb(2,2,2)" stroke-width="1" opacity="0.7215686274509804" d="M 367.5 100 L 368 109.5 L 367 109.5 L 367.5 100 Z " /><path fill="rgb(2,2,2)" stroke="rgb(2,2,2)" stroke-width="1" opacity="0.7215686274509804" d="M 462.5 100 L 463 103.5 L 462 103.5 L 462.5 100 Z " /><path fill="rgb(2,2,2)" stroke="rgb(2,2,2)" stroke-width="1" opacity="0.7215686274509804" d="M 377.5 102 L 378 108.5 L 377 108.5 L 377.5 102 Z " /><path fill="rgb(2,2,2)" stroke="rgb(2,2,2)" stroke-width="1" opacity="0.7215686274509804" d="M 452.5 102 L 453 108.5 L 452 108.5 L 452.5 102 Z " /><path fill="rgb(2,2,2)" stroke="rgb(2,2,2)" stroke-width="1" opacity="0.7215686274509804" d="M 556.5 103 L 557 104.5 L 548.5 121 L 548 119.5 L 556.5 103 Z " /><path fill="rgb(2,2,2)" stroke="rgb(2,2,2)" stroke-width="1" opacity="0.7215686274509804" d="M 305.5 105 L 306 107.5 L 305 107.5 L 305.5 105 Z " /><path fill="rgb(2,2,2)" stroke="rgb(2,2,2)" stroke-width="1" opacity="0.7215686274509804" d="M 404.5 105 L 405 109.5 L 404 109.5 L 404.5 105 Z " /><path fill="rgb(2,2,2)" stroke="rgb(2,2,2)" stroke-width="1" opacity="0.7215686274509804" d="M 542.5 105 L 543.5 107 L 542.5 105 Z " /><path fill="rgb(2,2,2)" stroke="rgb(2,2,2)" stroke-width="1" opacity="0.7215686274509804" d="M 436.5 106 L 437 113.5 L 436 113.5 L 436.5 106 Z " /><path fill="rgb(2,2,2)" stroke="rgb(2,2,2)" stroke-width="1" opacity="0.7215686274509804" d="M 531.5 107 L 536 114.5 L 534 113.5 L 531.5 107 Z " /><path fill="rgb(2,2,2)" stroke="rgb(2,2,2)" stroke-width="1" opacity="0.7215686274509804" d="M 295.5 108 L 296 110.5 L 295 110.5 L 295.5 108 Z " /><path fill="rgb(2,2,2)" stroke="rgb(2,2,2)" stroke-width="1" opacity="0.7215686274509804" d="M 330.5 108 L 329.5 110 L 330.5 108 Z " /><path fill="rgb(2,2,2)" stroke="rgb(2,2,2)" stroke-width="1" opacity="0.7215686274509804" d="M 337.5 108 L 339 110.5 L 338 110.5 L 337.5 108 Z " /><path fill="rgb(2,2,2)" stroke="rgb(2,2,2)" stroke-width="1" opacity="0.7215686274509804" d="M 394.5 108 L 395 109.5 L 393 110.5 L 394.5 108 Z " /><path fill="rgb(2,2,2)" stroke="rgb(2,2,2)" stroke-width="1" opacity="0.7215686274509804" d="M 411.5 109 L 412 114.5 L 411 114.5 L 411.5 109 Z " /><path fill="rgb(2,2,2)" stroke="rgb(2,2,2)" stroke-width="1" opacity="0.7215686274509804" d="M 421.5 109 L 422 112.5 L 421 112.5 L 421.5 109 Z " /><path fill="rgb(2,2,2)" stroke="rgb(2,2,2)" stroke-width="1" opacity="0.7215686274509804" d="M 327.5 110 L 326.5 112 L 327.5 110 Z " /><path fill="rgb(2,2,2)" stroke="rgb(2,2,2)" stroke-width="1" opacity="0.7215686274509804" d="M 463.5 110 L 466.5 114 L 463.5 110 Z " /><path fill="rgb(2,2,2)" stroke="rgb(2,2,2)" stroke-width="1" opacity="0.7215686274509804" d="M 307.5 111 L 309.5 114 L 307.5 111 Z " /><path fill="rgb(2,2,2)" stroke="rgb(2,2,2)" stroke-width="1" opacity="0.7215686274509804" d="M 296.5 112 L 300 117.5 L 297 115.5 L 296.5 112 Z " /><path fill="rgb(2,2,2)" stroke="rgb(2,2,2)" stroke-width="1" opacity="0.7215686274509804" d="M 379.5 112 L 380.5 114 L 379.5 112 Z " /><path fill="rgb(2,2,2)" stroke="rgb(2,2,2)" stroke-width="1" opacity="0.7215686274509804" d="M 392.5 112 L 391.5 114 L 392.5 112 Z " /><path fill="rgb(2,2,2)" stroke="rgb(2,2,2)" stroke-width="1" opacity="0.7215686274509804" d="M 338.5 114 L 339 115.5 L 337 116.5 L 338.5 114 Z " /><path fill="rgb(2,2,2)" stroke="rgb(2,2,2)" stroke-width="1" opacity="0.7215686274509804" d="M 401.5 116 L 400.5 118 L 401.5 116 Z " /><path fill="rgb(2,2,2)" stroke="rgb(2,2,2)" stroke-width="1" opacity="0.7215686274509804" d="M 412.5 116 L 414 119.5 L 412 118.5 L 412.5 116 Z " /><path fill="rgb(2,2,2)" stroke="rgb(2,2,2)" stroke-width="1" opacity="0.7215686274509804" d="M 455.5 116 L 456.5 118 L 455.5 116 Z " /><path fill="rgb(2,2,2)" stroke="rgb(2,2,2)" stroke-width="1" opacity="0.7215686274509804" d="M 370.5 117 L 372.5 120 L 370.5 117 Z " /><path fill="rgb(2,2,2)" stroke="rgb(2,2,2)" stroke-width="1" opacity="0.7215686274509804" d="M 493.5 117 L 494 122.5 L 493 122.5 L 493.5 117 Z " /><path fill="rgb(2,2,2)" stroke="rgb(2,2,2)" stroke-width="1" opacity="0.7215686274509804" d="M 334.5 118 L 333.5 120 L 334.5 118 Z " /><path fill="rgb(2,2,2)" stroke="rgb(2,2,2)" stroke-width="1" opacity="0.7215686274509804" d="M 300.5 119 L 301.5 121 L 300.5 119 Z " /><path fill="rgb(2,2,2)" stroke="rgb(2,2,2)" stroke-width="1" opacity="0.7215686274509804" d="M 399.5 119 L 396.5 123 L 399.5 119 Z " /><path fill="rgb(2,2,2)" stroke="rgb(2,2,2)" stroke-width="1" opacity="0.7215686274509804" d="M 457.5 119 L 458.5 121 L 457.5 119 Z " /><path fill="rgb(2,2,2)" stroke="rgb(2,2,2)" stroke-width="1" opacity="0.7215686274509804" d="M 374.5 121 L 375.5 123 L 374.5 121 Z " /><path fill="rgb(2,2,2)" stroke="rgb(2,2,2)" stroke-width="1" opacity="0.7215686274509804" d="M 414.5 121 L 415.5 123 L 414.5 121 Z " /><path fill="rgb(2,2,2)" stroke="rgb(2,2,2)" stroke-width="1" opacity="0.7215686274509804" d="M 536.5 121 L 537 122.5 L 534.5 127 L 534 125.5 L 536.5 121 Z " /><path fill="rgb(2,2,2)" stroke="rgb(2,2,2)" stroke-width="1" opacity="0.7215686274509804" d="M 349.5 123 L 353 125.5 L 351.5 126 L 349.5 123 Z " /><path fill="rgb(2,2,2)" stroke="rgb(2,2,2)" stroke-width="1" opacity="0.7215686274509804" d="M 377.5 123 L 380 124.5 L 378.5 125 L 377.5 123 Z " /><path fill="rgb(2,2,2)" stroke="rgb(2,2,2)" stroke-width="1" opacity="0.7215686274509804" d="M 417.5 123 L 420 124.5 L 418.5 125 L 417.5 123 Z " /><path fill="rgb(2,2,2)" stroke="rgb(2,2,2)" stroke-width="1" opacity="0.7215686274509804" d="M 483.5 123 L 486 124.5 L 484.5 124 L 483.5 123 Z " /><path fill="rgb(2,2,2)" stroke="rgb(2,2,2)" stroke-width="1" opacity="0.7215686274509804" d="M 504.5 123 L 508 125.5 L 506.5 126 L 504.5 123 Z " /><path fill="rgb(2,2,2)" stroke="rgb(2,2,2)" stroke-width="1" opacity="0.7215686274509804" d="M 317.5 125 L 321 125.5 L 317.5 126 L 317.5 125 Z " /><path fill="rgb(2,2,2)" stroke="rgb(2,2,2)" stroke-width="1" opacity="0.7215686274509804" d="M 381.5 125 L 384 125.5 L 381.5 126 L 381.5 125 Z " /><path fill="rgb(2,2,2)" stroke="rgb(2,2,2)" stroke-width="1" opacity="0.7215686274509804" d="M 421.5 125 L 424 125.5 L 421.5 126 L 421.5 125 Z " /><path fill="rgb(2,2,2)" stroke="rgb(2,2,2)" stroke-width="1" opacity="0.7215686274509804" d="M 428.5 125 L 432 125.5 L 428.5 126 L 428.5 125 Z " /><path fill="rgb(2,2,2)" stroke="rgb(2,2,2)" stroke-width="1" opacity="0.7215686274509804" d="M 468.5 125 L 471 125.5 L 468.5 126 L 468.5 125 Z " /><path fill="rgb(2,2,2)" stroke="rgb(2,2,2)" stroke-width="1" opacity="0.7215686274509804" d="M 476.5 125 L 479 125.5 L 476.5 126 L 476.5 125 Z " /><path fill="rgb(2,2,2)" stroke="rgb(2,2,2)" stroke-width="1" opacity="0.7215686274509804" d="M 544.5 128 L 545 129.5 L 543.5 132 L 543 130.5 L 544.5 128 Z " /><path fill="rgb(2,2,2)" stroke="rgb(2,2,2)" stroke-width="1" opacity="0.7215686274509804" d="M 532.5 130 L 533 131.5 L 531.5 134 L 531 132.5 L 532.5 130 Z " /><path fill="rgb(2,2,2)" stroke="rgb(2,2,2)" stroke-width="1" opacity="0.7215686274509804" d="M 542.5 133 L 543 134.5 L 541.5 137 L 541 135.5 L 542.5 133 Z " /><path fill="rgb(2,2,2)" stroke="rgb(2,2,2)" stroke-width="1" opacity="0.7215686274509804" d="M 529.5 138 L 530 142.5 L 529 142.5 L 529.5 138 Z " /><path fill="rgb(2,2,2)" stroke="rgb(2,2,2)" stroke-width="1" opacity="0.7215686274509804" d="M 539.5 141 L 540 142.5 L 538 143.5 L 539.5 141 Z " /><path fill="rgb(2,2,2)" stroke="rgb(2,2,2)" stroke-width="1" opacity="0.7215686274509804" d="M 531.5 144 L 534 145.5 L 532.5 146 L 531.5 144 Z " /><path fill="rgb(170,45,128)" stroke="rgb(170,45,128)" stroke-width="1" opacity="0.8666666666666667" d="M 170.5 39 Q 184.2 37.3 192.5 41 Q 205.3 45.2 212 55.5 Q 217.1 62.4 219 72.5 L 219 85.5 L 218 89 L 233.5 88 L 248.5 93 L 258 101.5 Q 263.1 108.4 265 118.5 L 265 133.5 Q 261.5 147.5 252.5 156 Q 246.1 162.1 236.5 165 Q 229.4 167.4 218.5 166 L 206.5 162 L 203 158.5 L 207.5 158 L 215.5 160 L 222.5 160 L 233.5 157 L 242 152 L 248 143.5 L 251 136.5 L 252 123.5 L 249 113.5 L 240.5 104 L 226.5 98 L 214.5 98 L 203.5 103 L 203 100.5 Q 210.2 93.7 208 77.5 Q 205.5 67 198.5 61 L 186.5 54 L 176.5 53 Q 175 55.5 169.5 54 L 161.5 58 L 154 65.5 L 150 72.5 L 148 80.5 L 148 84.5 L 147.5 87 L 140 76 L 137 74.5 L 135.5 72 Q 129.5 66 119.5 64 L 117.5 64 L 109.5 64 L 108.5 65 L 106.5 65 L 100.5 65 L 88.5 71 L 72 83 L 72 80.5 L 80.5 70 Q 82.8 70.8 82 68.5 Q 89.5 60.5 100.5 56 L 108.5 54 L 119.5 54 L 130.5 57 L 139 63.5 L 141.5 67 Q 143.4 53.4 152.5 47 L 155.5 45 L 162.5 41 L 170.5 39 Z " /><path fill="rgb(170,45,128)" stroke="rgb(170,45,128)" stroke-width="1" opacity="0.8666666666666667" d="M 62.5 91 L 67.5 92 L 70.5 91 L 88.5 95 L 96.5 99 L 99.5 99 L 132.5 119 L 143.5 124 L 157.5 127 L 178.5 128 L 179.5 127 L 188.5 127 L 199.5 124 L 213 112.5 Q 212.3 109.9 215 111 L 213 117.5 L 203.5 129 L 183.5 138 L 168.5 141 L 158.5 141 L 157.5 140 L 150.5 140 L 140.5 138 L 127.5 134 L 97.5 117 L 78.5 109 L 73.5 108 L 49.5 108 Q 32.8 111.8 22.5 122 L 22 118.5 Q 26.9 106.9 36.5 100 L 43.5 96 L 62.5 91 Z " /><path fill="rgb(0,0,0)" stroke="rgb(0,0,0)" stroke-width="1" opacity="0.996078431372549" d="M 353.5 61 L 358 63.5 L 358 122.5 L 357 125 L 353.5 126 L 349 122.5 L 349 64.5 L 351.5 62 L 353.5 61 Z " /><path fill="rgb(0,0,0)" stroke="rgb(0,0,0)" stroke-width="1" opacity="0.996078431372549" d="M 489.5 61 L 493 62 L 494 64.5 L 494 79.5 L 493 80.5 L 493 94.5 L 492 95.5 L 492 110.5 L 493 111.5 L 493 123.5 L 488.5 126 L 483.5 123 L 480.5 125 L 471.5 126 L 460.5 122 L 457 118.5 Q 451.3 113.2 453 100.5 Q 454.8 90.8 461.5 86 Q 466.5 82 475.5 82 L 484 85 L 485 64.5 L 487.5 62 L 489.5 61 Z M 469 93 L 466 95 L 462 101 Q 461 107 463 111 L 469 115 Q 478 117 482 112 L 483 112 L 483 97 Q 480 91 469 93 Z " /><path fill="rgb(0,0,0)" stroke="rgb(0,0,0)" stroke-width="1" opacity="0.996078431372549" d="M 508.5 61 L 513 63.5 L 513 122.5 L 512 125 L 508.5 126 L 504 122.5 L 504 64.5 L 506.5 62 L 508.5 61 Z " /><path fill="rgb(0,0,0)" stroke="rgb(0,0,0)" stroke-width="1" opacity="0.996078431372549" d="M 335.5 64 L 340 66.5 L 341 78.5 L 335.5 82 L 332 79.5 L 331 76 L 322.5 76 L 313 84.5 L 306 96.5 L 305 107.5 L 309.5 114 Q 313 116.5 320.5 115 L 334.5 107 L 338 109.5 L 339 113.5 L 335.5 118 Q 328 125.5 313.5 126 Q 304.5 124.5 300 118.5 Q 294.3 112.7 295 100.5 Q 299.6 80.6 313.5 70 Q 318.5 65 328.5 65 L 332.5 66 L 335.5 64 Z " /><path fill="rgb(0,0,0)" stroke="rgb(0,0,0)" stroke-width="1" opacity="0.996078431372549" d="M 386.5 82 Q 395.9 82.1 400 87.5 Q 405.1 93.4 405 104.5 L 402 115.5 L 395.5 123 Q 391.5 126 384.5 126 L 373 121 L 368 111.5 L 368 99.5 Q 370.1 90.6 376.5 86 L 386.5 82 Z M 385 93 L 383 94 Q 378 97 377 103 Q 376 110 379 113 L 383 115 L 392 114 L 395 110 L 395 98 L 394 96 Q 392 91 385 93 Z " /><path fill="rgb(0,0,0)" stroke="rgb(0,0,0)" stroke-width="1" opacity="0.996078431372549" d="M 416.5 82 L 421 84.5 L 420 105.5 L 422 115 Q 431.7 116.2 437 114 L 436 96.5 L 437 95.5 L 437 85.5 L 439.5 83 L 442.5 82 L 446 84.5 L 447 90.5 L 446 91.5 L 446 124.5 L 444.5 126 L 441.5 127 L 438 126 Q 439.3 122.7 434.5 124 L 424.5 126 L 416.5 123 L 414 120.5 L 411 108.5 L 411 90.5 L 413 83 L 416.5 82 Z " /><path fill="rgb(0,0,0)" stroke="rgb(0,0,0)" stroke-width="1" opacity="0.996078431372549" d="M 525.5 82 L 531 85.5 L 543.5 107 L 554 85.5 L 556.5 83 L 559.5 82 L 563 84.5 L 564 87.5 L 543 130.5 L 538 145 L 534.5 146 L 530 144 L 530 137.5 L 538 118.5 L 523 92.5 L 521 86.5 L 523.5 83 L 525.5 82 Z " /></svg>